<mxfile host="65bd71144e">
    <diagram id="qT5VL_Rf-bBIzpP5OloC" name="Page-1">
        <mxGraphModel dx="1714" dy="1076" grid="1" gridSize="10" guides="1" tooltips="1" connect="1" arrows="1" fold="1" page="1" pageScale="1" pageWidth="850" pageHeight="1100" math="0" shadow="0">
            <root>
                <mxCell id="0"/>
                <mxCell id="1" parent="0"/>
                <mxCell id="3" value="" style="rounded=0;whiteSpace=wrap;html=1;fillColor=#1ba1e2;fontColor=#ffffff;strokeColor=#006EAF;" vertex="1" parent="1">
                    <mxGeometry x="90.2" y="70" width="859.8" height="130" as="geometry"/>
                </mxCell>
                <mxCell id="4" value="" style="dashed=0;outlineConnect=0;html=1;align=center;labelPosition=center;verticalLabelPosition=bottom;verticalAlign=top;shape=mxgraph.webicons.blogger;fillColor=#FDE47C;gradientColor=#F55F21" vertex="1" parent="1">
                    <mxGeometry x="450" y="84" width="102.4" height="102.4" as="geometry"/>
                </mxCell>
                <mxCell id="5" value="" style="rounded=0;whiteSpace=wrap;html=1;fillColor=#f5f5f5;strokeColor=#666666;fontColor=#333333;" vertex="1" parent="1">
                    <mxGeometry x="90" y="200" width="860" height="60" as="geometry"/>
                </mxCell>
                <mxCell id="6" value="" style="whiteSpace=wrap;html=1;aspect=fixed;fillColor=#e51400;strokeColor=#B20000;fontColor=#ffffff;" vertex="1" parent="1">
                    <mxGeometry x="90" y="260" width="860" height="860" as="geometry"/>
                </mxCell>
                <mxCell id="7" value="" style="html=1;shadow=0;dashed=0;shape=mxgraph.bootstrap.rrect;rSize=5;strokeColor=none;html=1;whiteSpace=wrap;fillColor=#6C767D;fontColor=#ffffff;sketch=0;" vertex="1" parent="1">
                    <mxGeometry x="180" y="215" width="150" height="30" as="geometry"/>
                </mxCell>
                <mxCell id="8" value="1" style="strokeColor=inherit;fillColor=inherit;gradientColor=inherit;fontColor=inherit;html=1;shadow=0;dashed=0;shape=mxgraph.bootstrap.leftButton;rSize=5;perimeter=none;whiteSpace=wrap;resizeHeight=1;sketch=0;" vertex="1" parent="7">
                    <mxGeometry width="30" height="30" relative="1" as="geometry"/>
                </mxCell>
                <mxCell id="9" value="2" style="strokeColor=inherit;fillColor=inherit;gradientColor=inherit;fontColor=inherit;html=1;shadow=0;dashed=0;perimeter=none;whiteSpace=wrap;resizeHeight=1;sketch=0;" vertex="1" parent="7">
                    <mxGeometry width="30" height="30" relative="1" as="geometry">
                        <mxPoint x="30" as="offset"/>
                    </mxGeometry>
                </mxCell>
                <mxCell id="10" value="Dropdown" style="strokeColor=inherit;fillColor=inherit;gradientColor=inherit;fontColor=inherit;html=1;shadow=0;dashed=0;shape=mxgraph.bootstrap.rightButton;rSize=5;perimeter=none;whiteSpace=wrap;resizeHeight=1;align=left;spacing=10;sketch=0;" vertex="1" parent="7">
                    <mxGeometry x="1" width="90" height="30" relative="1" as="geometry">
                        <mxPoint x="-90" as="offset"/>
                    </mxGeometry>
                </mxCell>
                <mxCell id="11" value="" style="shape=triangle;direction=south;fillColor=#ffffff;strokeColor=none;perimeter=none;sketch=0;" vertex="1" parent="10">
                    <mxGeometry x="1" y="0.5" width="10" height="5" relative="1" as="geometry">
                        <mxPoint x="-17" y="-2.5" as="offset"/>
                    </mxGeometry>
                </mxCell>
                <mxCell id="12" value="Large select" style="html=1;shadow=0;dashed=0;shape=mxgraph.bootstrap.rrect;rSize=5;strokeColor=#505050;strokeWidth=1;fillColor=#ffffff;fontColor=#777777;whiteSpace=wrap;align=left;verticalAlign=middle;fontStyle=0;fontSize=18;spacing=20;" vertex="1" parent="1">
                    <mxGeometry x="520" y="210" width="260" height="40" as="geometry"/>
                </mxCell>
                <mxCell id="13" value="" style="shape=triangle;direction=south;fillColor=#495057;strokeColor=none;perimeter=none;" vertex="1" parent="12">
                    <mxGeometry x="1" y="0.5" width="10" height="5" relative="1" as="geometry">
                        <mxPoint x="-17" y="-2.5" as="offset"/>
                    </mxGeometry>
                </mxCell>
                <mxCell id="14" value="" style="rounded=0;whiteSpace=wrap;html=1;fillColor=#1ba1e2;fontColor=#ffffff;strokeColor=#006EAF;" vertex="1" parent="1">
                    <mxGeometry x="90" y="1120" width="860" height="110" as="geometry"/>
                </mxCell>
                <mxCell id="15" value="" style="shape=image;verticalLabelPosition=bottom;labelBackgroundColor=default;verticalAlign=top;aspect=fixed;imageAspect=0;image=data:image/jpeg,/9j/4AAQSkZJRgABAQAAAQABAAD/2wCEAAkGBxMTEhUSExMWFRUXGBoaFxcXGBcYGhoaGB0XFxoaGBoYHSggGBolHRcXITEhJSorLi4uFx8zODMtNygtLisBCgoKDg0OGhAQGy0lICUtLS0vLS0tLS0tLS0tLS0tLS0tLS0tLS0tLS0tLS0tLS0tLS0tLS0tLS0tLS0tLS0tLf/AABEIAQ4AuwMBIgACEQEDEQH/xAAbAAACAwEBAQAAAAAAAAAAAAADBAIFBgEAB//EAEcQAAIBAgQDBgQEBAIIBAcBAAECEQADBBIhMQVBUSJhcYGRoQYTMrFCwdHwI1Ji4XLxBxQVJDOSorJDU2OCRHOTo7PC0hb/xAAaAQADAQEBAQAAAAAAAAAAAAABAgMEAAUG/8QAJxEAAgICAgEEAQUBAAAAAAAAAAECEQMhEjEEEyJBUXEFFCMyYcH/2gAMAwEAAhEDEQA/APmmc1wP1qXQHY/eoi3Mrz5VtlNbV9CJHDodak9vpRcLLdkKCe8Ax4ztTayIDG2pHREPrA0rNPK1+SigVdthsaaXCvH0nKeZ0HqdKdbEsPxOB1zBB4aaGhLiF1m4xPRAxPmWIA96WU72g8aBpw9+QkdeXvXhw6To6nuXM5/6RRWxAOyA97E3D7wvtXnxLEanTpy9Nh6UvqSDwQS3w8iQCfMAe0lvauPgQN7lsdfqn0y0rdxXIny/ttUg3ZDAjWdOkdfGrKWSekhGooMbNsDV2Y/0rlHqxn2qAuoNMk/4mJ/7ctDJGx0P4ehqPDrbXJ20Ez05AEDeTA86LxzT26ByiGbFNECFHQAD3396EcxMQZ85pkIjmUG69pQfKVn8Q6edKYfC3MxKmddGHeJB8CD70fTt022dzoPhcMzuE2JEjNpptQ7vZMHk0Gptwy5ObSdNAf3+zTF2w146qwY/U5EbdepPXSqLBXwK8jFmtawDBiVPIjvpdLhlp3iDRXwTknSCgEgk696mI8qKltMpBzrcOg7MjkQZnuI8COlNVdIXv5ErDkEQd+vWjtiZXQGSY8+7qdR61E4I7GAdZOv7H9qO6DWOyG3AiJGkrOqnU7Hn5U0Y5OkgaA4QXCxXeOpj7899O40N7hJJ9qM6gkk6yZPj1jrQbq9Kb051tnaB2nOs1OaGRXKKjQT1x9Z37qfW1bIVmdge5Rp3Ek/lVeI1muriDyjxrJmg5S0Ug6LBmtmYVp/mJB8DAgVG4QBEgd5gn02HpPfSioWSZJObKfAjQ+oNDuHtNG0kDwnSo4sfJtNjyn/gV76bmWPU6/evfO0nLHSddfypk8OCEK/1xmf+gcljm2o8yB1pTEXAx2IA5DX/ADPU0YxU390ByaR6zfY7n09KibR23O451PCqCCNZ5e8g9+x8qaa0OyQdQIKwZ2iekHfzrZDGuK0RcmLPamDIA2JnbxinLOHyAEtnDcl1gdTMelGtjshYEDXl5eMe1EC1aGF3bYrkV+KssFViCVmJjYkbemtO8LtlbZGUS8SddgSYjlrHpXb1oOI7xTtkaxFMsK5WwOQsnCSdbZyn2n8qewOCdEVW3E+5Jj3q0wdmdv0po2utMoxUrQNsqhaot1YAqxTDgkacwKUdNKewdFfd12pK6tWT245UB0mmAVrSDPMgg+B0O9BDAGSAe4zr6EGnL9s0o4rqGTAkUG4KYZd6C9JIIFXIIYbjbQH2OlAimLzD8Mxpv1jXblMx3UGKiMgL6Go8xTVm1muIDsWE+HP2qbYpRrbt5GO5JzRO4TTsj1Ou9ZZNqVDpDHDrZ+XeYfgyPHh8z+w86X4dbVmLOdF1y83PJB4nfummLLAWr7GJZQqjrmuIWjyBpT5nZVV0OuY+OmnlHqazR5OUkvlj60ExVwsTJljqxG09B3UBBREGldQa1vxYVBE3KwtrSm01pdEoymKu5xhqTEUW+hhEJBIGgiT0nauiuKKKqVZCE7S1YWIApO2o5mN+U68h60W2SdK4Bb4VqctsOdVmEmrrBYdCRmuovjm/SpydDoYwWCf51pSNGZYPIgkailk4SzE8gPqYjQAbk19H+GsAoUdpHCmViZB7p5d3dRuN4O2LZWVQdDzPUnWsn7n3UNx0fH8Uo2Exy/vSZTer3iWDVSf4iE8guY/cVQ418pE8+fIePStsZJoiwF8DlrPt3d9I37PPl+n+Yp64lKPdmRzFMcmIuKXK0e9cC77naoq0iaV03Q9izLUQBRbhrqXyBGVD4iTSNDCN46VBVo10TU0FQcLlY90du/So7/0r1wCRH8q+uUT7zXSZg935VC4NazeMvc2NLokK5FeSiO2YyYHgAB6DQVuRMJZP60w23cTv6Uva0qdy4ckScokhZMAmJIHXQelK4upv/P8AgV8FjYt6wDI01g8xr6HTyouJbIcoief6VPDEJmLLKq0abkzooJ/cSaGuFLGSdWOvnWTzPJ4RUYvZbBi5Ntnb1xysCPQfca0vZx8HtLpzg/rWjt8GbJnACJ/MxAmN4zGqvEXMAhy3WZyd2twwHnt6TXnYvMnemzTPBEsLBnancK0GaSTBLZg23+ZauAMjzMHmp6HUH1o1tq9zDk9WCkYJx4yo3Hw7xqLlu2ugLKO8yYJPtA8a9xfj+fskwdtIg8iD9waznB3i/aP/AKif9wpR3oejHlYrlohxC7rVFieJ2tVLexp3iWJKAnKCPEzPSIrH4pwWPYjzk+Zo5MvHSFSseGMyTBzLyj96UsmKMm4Ttp4iq5jyqasVj7VnWaQ/FHL9xmaZ1P7irJVgAc4qrc6j105VMXCDoabFk4ttgcbH7lg5c0aTE8p3ietAkVBcXOjetRbetHNPoCTITXBf6URlG51oN6ecdwAHvG1RyNrofsewuHYr3aL5sTH2NJ/MjSZq8RQLNw8hcsE+lys/baKw+NNttlciqhkIRpM8/wBR+++pqK5aII0rq16cEq0QYZKndtmI5kSIIO4nl+xQV3gUzYsHXWNCCP3zPSl8jPHHB2Pjg5PRaMk5QBAHLnJ3J7/yAp8WO1bGwJ7TdFGpPpUOH4fPiIJ7I1YjpH7HnR+O3DetE2FKWlIzMdyBMzGy93hXzc5uctnqRSihO47Yi4127OQA5F1IVR9KgDbTcik8RYtMAXtm3I5845r3U3f4llRQiiD9R03nl6UH4k4wmI+X8pCkLBBjeZgHmP0FGGNt0GU40S4SuSzlkwWLBd4BAAPjVhZu0C7byNlHIAecCfepo4r6fx4KONJHjZJXJlnYvwQRyIPpUmNV6XaIL9UcRLPXsp3APjVVi+Hox28e/wAafu3Ko+LYh10BhT03PWTypZqKVtHJiXFQgaFA0GscjVW7E0RmLcvIVMwQO79zWCXvbZVaAoBIrgQ7c5rt23EgnUUbCmDBrordMNgYiQaZuWiDBHIHyIBB9CKNdt14WxWuOLiLYm5J1H776Hl5k70aaG528az5I6sdFpdun5bpGjFT4ZNfzNV9pYIG86Vb2kkXNNkuH0FsfnVWF7QNZ/EjcXX2Pl0yarBI6j85/KiW+f6VNQDR8JZGuYQJ3/KtufIsUGxMcObo5ZsMyZtAoOumpJ76sRhgluRsZ/Kn8LhBqB9LiPOkGuxhzO4MfYV4M5ymz0IwUUW3CnYXBlTNmZdCDr2G0+2tOcaZsPh+0mQk6ow3Vt4/fOhcCuAGxmP/ABATtEZUQCfEmPer7juAN22ustadXUHWRIDL6S0f00VjXER5KkYHiHCLqJmcouWDkBzEZgCATEZh01iN67w7BlQLhUnp0Hea0PxRbVbNoNILXZc9ViPUE+5qzGX/AFdWC/S8N4cvKrKSg02rFS5LRlHaa5mij8asfLukciAw8G1pLPX0GOanFSR5s006YwjmiK9LpdFeL0woZ2qj4lem5l3AEeZ3q1L1XrhgN95kk9anki5aQYid62ETvgj/AJt6WwtiRP7Iq0uLIihWrWUQKR4U5L6HUtCmLABBOoiDTDYUFQeWwMidAOW/Ma/3qGOXs+FdtXAEUnoKHFc2mH4PNoNT50t/rPdQ8TiCxgaDl/eoBu6fKklm3URqDFaVdu1TN54oH4I5kz5DQfnUsz+BkaKxdUC9Jgm00d5JTT/pqoGtN24hp/8ALb1zCPcikql4eov8j5dsasJM9wk+w+5FWmG5DITMR1PlVdgX3UfiIny/c+VX2EtncHKWmW5i2NIXoTUfMnc6+iuBUhvDoEB7QjQ5Se0D4Ulg8Gbrsmy59+sa0P57Eu34U+leU9e8761Y4bGJbylmAA179tTHM1l4NF4zUnX0M4rCJbW2E3EgHNMAakbbya0HBeOr8tc1sSFhmkmdCJjkT186zOK4kLp7KkAAwWOpnSe4abCh4ZyLJI/l/vRjfEyZpVk0M/FgN1WAB0EqgMwdCYPMx9q9wfGlsJcB/wDLzD/2H+1WGDtpdUZpGxBG4O/ZOxH9J2pP4i4W1oNcs/TcBV1HIn8QHIHn0PjUpPlr5NeODgrPfGCBreHvgfUpUnwgj86zAFajA2Llzh5tMjShDW20IMTIkHppWXBr2f03JeLj9OjF5Uanf2czURWocVBrtegZhqaBdNeW7pUGNccRAqMd9SJqDtXHEc5Go6H7RSmCErB5SKZY0sXC3LnQsT66/Y1GeppjpaBMBlLDlt9hFcSyIH6103I2j0BHoaiDSJJMajmMG1RuJy6aeg/U13EtqvdrUmPajv8A0FZp/wBmxkPXZCP/APLH/etVtu6SdT71a3xNq6Tytr/+RRVMLZ3rL47dMpl7LjhKFjA3JgeelaTEMFViObBF/wAKz/c+dZv4fBFzNyGoqzxN7sL4MfyFR8h3lNGHUDttf93Y9dfU0m1kZbYOmZoPgYqxtD/dT4UhjdrQ57+60ydWZMb9xapb/iXgNP4jgaRpmYefjTGWEy91cgC9dExLsTO2rNt5R60O7ihnCJ2m9h41JW6QuZe9g8FjbyMLdtGuE6ZVnlpPh41usJwbEumuVTH0sxMd2gNZfA482Vy29yQC0anrrWpb4hWxh1d9yAdN+1MV6D8OHHlMePk5EqRR2sNfwdzI4KrdMRujEEajlmjz2rJY6BccDbM33Na+18dpePyb1j+E3MGWDfzKI7LeH51ieJoUvOpIOsgjZlbVWHiCDTeHGMcknF9nZG3BJg7j0PNUHNQDV6DZGhgNXQ9Cz13NRTBRJmqOaolqjNGwnXNIX2PzNecfaKba5SWKbteH+dZs70vyMghWji5GgCnvyj8xNCL6VGabR1gr/wBQ8qYy9sfvn/alLlxtCY7qZs3Zfv76xyaqQy7Q9iL/APCYAbqAZ7nU/lSdv9/nRMUhUa/itqfsaFZGlJ4ekymV7LPhZyqfCpn6BP8AL+dIWL0U+EzWrh5Koj1NQ8mFZOX2WwyuND3D7gawwHQ0riz/ABrY5DL95/SqvA45rcwJBEQaZVybec75vsKV0ShjqVllx/6ywJUljPt/eo4C18tNfqbryHShqhuYi6SeypnzIFP4YZ7g9T4CtXiYrVslmfuYe6uUhf5VJPiahxXh93FXWKtCLlVd40UT6THrUoLLcfkTAqxwVlXRkLR2iVbnv057VT9QlxgkN4cOU9heG/CoKwG7YMzE69IrF8SvZ7rHvgeC6D7V9A4dhoTN864wzE6NoVVGdgd4WFOnhXzf71P9Pi9yZXy2k1FHCK4woyWWOwP2+9XWCtWrYAcA3G5mCFGuwI969IyFdxK0qi2VUrK6g+Wvjr70nNaJyua2x/D/ADjujn4e9I4+2txpTKB1UADwhRp4zXHFOWqLwaYx2HKREsOsdN9iaTulteyfGklJIJy5cEjoaFjQOzHTXyAH5V1hmGm41pdzJrHkeh0FtNvP73oZumojapLaJ1ocnWjqOlBrrJ/e9Stud52qbabAx1mJriWy2gHvQlSRyu9FpxW32bRB/wDhlMdDnYfl7UlhmGxO8fvu5Va3ltOigu+ZLQSQoy/Wz7TPOJ9qqlwyyQ0jWAQRqfA/aaz+PkUUyuSLYb5Qn6h5zoem29XfCrc4e/PVF/7zWcuu1tspMxBBjcHUf5Vq+Bp/udxv5rgP/SOvjT+XNSgmvsbAqkzKWxv51YXGjDINyXP6UmywzDvNNYZgUSYOp06RG9QirkkO3xTZf8NwZYMY1cgnugAAVJbZtviBsVTTzj9ab4JcJgDXuqy4xgf4wJ5oC3kf8q9jBBI86crexWxh8ttLY1IGZvHf76edVeJbI622BIY6wYIPcYrc4bCqqgGA57T6a9y+Q9yelZH4tw5zrdCwo0B21P8AlXn+TkWXOo/CN+GLx4XNdkeD4rt3MugW08c4lkXfn9RHmaqPiG4q33K9kNBgacteXWm+BiLd5uotqPNjcPtbq145wT5mBt3FE3c+aOZV+wAP+k+FehCoow23PZlEeRInxMgeW5NSBO537/8AMk+ZoOM4PdtiXUqNNwTv4TU8H8pTGdmJj6FYx10MFvUUY5FLoo4tdhL2JDDKxEdNTtPQ15WB+kkeMx6zRLdyx+N7wInZFUEctC5IPgDQL3EbQnJYU9Gu9tvtApuYKBNhzcbs5mgakKzDu2JrhwrlgkQdNCefmSane45dKhVb5YBnKioonypP/a96frmJiQDvvuKlKSWw0M8Twi2t3V7ggwqjJvzbZvKqa60metHxOIe42ZyST+9ByoWQdahP3dDLRFBTQAodm3vpTK1XDHQGxdxMCOY1NPKjJekLBXVehE86E8Gn7RLDOTMD7f3IrJ5a4qyuHZHHYhdSg0JiDyMbEfiHf3GhW7OawRl/qA7wNI8QGHiKPcZTKAAdTvMb799SsvEK5BDATH9WunSPvWGDSRdqyvxRBtrciZ7J9JX/APb0rT8Juf7oo6yaoMVYCo9uR2W021gkCPIzTfB8dp8s+A8gKrK5Yl+QQpTYli0i43fQeH3QGINNY8fxD4Utwq3qzRJzAL4x+VPgVzQmb+rNr8NOpcZtBvrrPdFarBYT5l9miQsQD3fSD4b+MVk8Bg3KhkTT+didT3AQa12CvPaQ6DczrOvnXoZvIjjhxXZkhicpW+i5+Qeek84qo+JuEnEWRYQhO0CCdSTsSY1mCdP86Bdx+Jb6Bp40xfwN4hCbhDRJXo3lAPma8nnTtdmttdMwnDMKfkohDauxeAdAsr/zfUIrbYG9mKRoqx2NJiNJnaNNByo3+qZmP0592AJVp/mKzr4ivYviS2mCBBoJllnuns7DvrRPyeeNx6JYsfHJfYT4mw+fDgGGJDCdpnSOor4lftvbZrZkEaEeH3FfZ0Z71wBVWT9J5DTU1nfi/wCDL91luK9rOBBBlZG41gid943pPDlxbT6ZbPyk+j5rrXAxp7D8PutcNtbbM6khlAmCDBmNBrWi4f8A6P8AFXdWy2x/UZPoK9GUox7Znox9y2d96+i8H/0a2MQiXUxL/LKg/SpJJE6HYAaiCCQRvRLP+iljvi1/+mfvmrSfDo/2fbGEuAQuvzVGjs5LNqTsNBtyqGXNFK4sZRMZ8Sf6OflBXs4lGTWfm9kjwKA5vCBWMxHD2t3GtsyyBymDziSAR5ivqPxG1t7brYUKwDMpG4Y6z4yPevlaatncliW1J3J569aSOSTVnNJA7VvK8HeYogY01cX+JA5ECdpH7ilYq3jz7JyClKZwb/UhOhH2I28poDk8gaEr5XDciINJ5S542Vx+2RcW8P2QwXLA2O/n1P60lcUGCOnrGlN4fEbAtzM+BAAPqKXeBoNht515uN7ZqkAxKGRPNQfdh+VS+VCgjeJ8wSPtTPEbcMg/9IH1a4fsa4tssFH9J+5rW3/AiKX8jAO+fKdjtPnp96sfhjCC8yJrH4o6E9rXqYA9aqMOs6d9WPAsQ9i218aw+UgncDf7+1Dx0+VI7KtbPobXmLKqDLbBy6Dp0/Wnr/BbtwEhlJEHskA6ciDvVX8McW+cVOUKpGg75HXzrVXMQqmCRry5k0k472c0migtW71piptgqQN5jzgHPpPvtQX4pdV2PzBk2FsgkDluB41tlxIygHnoP0qk+NcEWtA2wAwM/kfao8QLHsqLPFXyyQpI2JkR4dKq8Viblxg2aW7xI1331nwqHBMO9xoLGJ5RsOpOo/vWr4bwQZhplneJk93hTRxMrKKi1w7G/g/Bsqm6+50XcQOe/Xv6VZY0q3ZMakKD3mT+VGvXQsIugA9hVRxG7ly9Zdv+VGA92FXjGtIKuTtlIipbvOSoloBI3008+XpV3h8UpGnKqC5h2ZCymGymCf33VlrfxCyHUxG4/Wp5dMTjs+mNie+leItmQgwawifFALSW7PdV4/Fv4YbcMJ8qjYeJVKpVjHKsMbUXbg3Qs2nTUxWr/wBrLLGNCdKz74NmYkkS0kRz/f3iq450tiTiKic2vIgehEewpdkMnSmgDrPd6j+1E+aNfE/erYptMhxIOI29K6vD2YTA56sQu/iRNMfNFshtG5HXaZFRdLTnMc556uI8uz+dJLPo0rGAsYF1JBKkDoQfcUa7YK6kbfei2b6hwMuReXMknQST4zVtcdI1zFgNhA16CNfOs8pbspGPwUuKfO7Ny0C/4V0FTQkOP8P3E/nVqtpSJZcv+KKrGcG8Y2Gg8AAKr6qkuKQODi7KzCb+YqywaRhb4OslI7iWOo/6qQwySx8vvT1xyLZQa52XSNdJOnrWrxI/yWRzPVD3wzjWCBeQkDlzOnfpyrRrjIOcEydOp96yuGwV1LRBRkLP2ZjYRr1mRNXFq8ykczQy1zdDQi6RueChndWfRFBKydTtr4zFWnxNc/gyNZHrJArG4fidwNlO8e3dWjJN1FXkoGveKztbGSZLgHDAiAkCWEk9B0+/tVrexgQjqRoOi/qaiLiWrWZtAPUxsKz63mu3C50Lew5VVDUXKXS2+9VfGr31DooXzY5j7KPWrROyD96y3FcTBJPN515/uAKYdIuMMg+WpHSsF8QcGi6yqNGkr07RLGem8eQrecK/4QHPX9+9VXG1UMGeIiBvvuNvP1pMnVkpI+c38DcQ5WWOXXkDy8RV1wa+Wtm2269eh/Si28eUcm3bzctQdt9Jp61jmuyCkNlJ010HXePWss8spKpIdQXaKS5hMgGYc9IE+dLs/wBUdqdQApVh4GCBWrXhZNsNqS0QBoYOg1JjYE1Q3sKiA9q6ADH06SOWaYnSljOL0FxtFLig5MkEzqRMnpXfk+FWGMcTlEkLpJ/z2pae4VohJpE/TSGsW9oghx2v6AffN/aqhcK5MJ10HP7UwWLkkxO5Ou1EtXVXULJ6tPsAfvNZVJoq9hsPw3LqzNmHPSF9/c09au2yIDsWEcwNOZkjUDu5VVXLxJBOseMf2qa4cT9YUbgw3l30rt9hWuiVzFkmTE+p8oE0lhn7TDnrHjTOMuFSZYEj8Q3PnzqnIYmRvvVsUbsWbLnhuFJmAWdjAA7tTWjsfDd1ZugE3CNCIITnB1nuqp4Ji3TNcW3miOXM7xW04b8WQJuWXGm8fc1shKkGOPV/JW2cBi4g2sxbXMIy+szQwbtxylwpmWFgrlK9xAA0rW4b4nw9wi39OfQTtr31PiHCAX+ZlJMfUNyP6gNSaUeNLUkVuF4DBVywJCwCNp8OQq3sZUUknsJ9R6noKEt+2oh2iRGUfV4a1XYwPiG+WP4dtfw9AebdWPL1oSaStnV8EHv3MU5YHLatns95H5D71YJuBPaY69wHP7DzplLaJbCKIAGg69Peu8PwLLmZl7bRr0HSl9aCXYoRreYqOh9TWN+JrjNcMKci3CuaNNIEd3Kt4tsgbRHj6yKzo+ILKOZJMSGDIe1vEdD41L91y/qjojfCuyhnTaCeh6elSuYcHVhoCCGnY7/alb3xFYBjK5E8o26ifsaXxXxEFB+Uy3gSP4bIykDWZb05c6zZcs566DSQ1d4I5uq6BSD/AOIpHZ0/Ep+pTtprr50x/sULqqqjkidJUjYqNezI5+1Zq38SXUc/LRFtRpbc/TpybcDu26UnhuLXYbNfYyZ+psg5jtHTlyPKocQ7NTxhdVVNG0lQJgECF6TIoTYBbwytnyjXN9Kgjc6jtHflG9Zu1xO7auC9bT5kjW44JDTuQeda3hvGBftkL2bhgEEZsrc9D0HlQqnYTL8X4MphrK5hEGVgiNoP4tqzxwzdE9a+s3FcJltMWJ/8TsGP6YXY98VheLYRfnPlQkTyKgTziRMTNVjkaOqyiXDJB7aqDz0G3Lv8p2oF6ygOjlx1UEjw0IrowqAxlknadT6CuG2o/CPtTIDQuzpyLen96mrSCJkdwaR36iKYQrzLfemxhmP0q46iVX2Ao3QOLKJ7TE6Anw196lw/CNcuBVRmgjNA2E61a8RthQMxg9AzGfQAUvZcNEIFg79on1MxVsU22kdwtmxwHBgBmLZQNlJVY8ZYkmn7WAw5nOxPTI59wdKz9izeYAZlHT/hrP8AzxPlQsTw++Ds4PQrl9IEGtdlFj+2XbcMwhZkRTmEHfWDO3hHvTRw+JtgBLxyx+ONvMVUcEweJF4dnKxDBs4gRHTSfLpWjxWHYAElXG0Dae+uo6VJ0LcNwtpWkvnc8zoBO8dPGr6zgQNRzM8tfTeq3hqoWDKNQdVPXu5xS+O4t8q7N8qGcj5akxlWYzOZjyHrWbyJyWkTfZb4u4inWSZHI6d5iNKVx+IdApSCNAWU8+4Hzp9iSBmgg7c5A3JodtdAAgOpy8hpqTHdO1YKOTM7xjjSJm+Zcdm2a0kSsj8RnfuEmqbH8YYNFuwpY7L8rtR17QJ84rSYe1ZDF7SKCx7RAiTMmffSjJm+askLbKyYA7RbYT5H2rvU+kMZknFXYU2Ykakog07iYj18qNY+FHMtccidkXten0qPetTisTZt5gXRGUgGdgWiAY2JLe9V+O+KbdgXCxW5kIBVd1J5QQOu9Byk+gBMJ8LWVIMXM388mfTUV2/wUM3YxLCCAytbV4J2+oaVncR/pEt6EWng7FSvmCGUfnS1r4tsqWZLjJ8wayuYqevZWJHQ0yhMFm2OHUBVc6nQMNJI5x9IqN2yqQ6kKQQTMax3isDjviGxej5uLubz/DW7bnvIHZnyqpfjF5VdLOLR7bBgFufVBnY3FgHwIFMsLByPot7itrDlRcCWluEiVPZ3MEkABQR378udJXBdJJtrZdPws25HU6e9fLMHiLkG3nbI0ZlzdkwZ57eVWoxA/wAiv60ZY6GjIvlsFh/xVaPxMjED/wBzL+dEt27B0JV26W7ZE+u/lRhwdzBv3Qgjae03+EHYeVGWU7Ni3kHNyAzt4HlSNjEmw1q2mdgbXTsqXPhqaRxzzaHykgsfxmCRvm0hQJgba60S7gmnM4zvyDMMq97drU91K38G347w15Zp9lk1yOK44It9dtT32jr5gSPtUcPb+XmNt1giCWGb1DLpy1nzq1tcKuABgrHWAYZB4xExQ8Zw4oQS2Unc5gI8iZqinXyDiVrvdTXMpU69lgVjvq1wXxe1tcgJjaFLGPAEQPKhpgWYEIHZeuVVUTvLsBFIrg4fKWK+B08J/OqRzSXyG2aW38XNADOSDp9MsB3GdPOgXfiiyBGZhrMFdjVVh8GWJhCxHKSw8S0wKljOEJaXPcGboqanxO2lU/dHDKfFiKGCto2+oExVDxviH+tF7s6qkHtTOun3oeKNsGAms9ZjukDegLl1BXKG0J5x1FCWXkuhG7C4v4hxFxbbNcIZBkDKXBIBLAmDBOu/dV1w745vIhR3Rwwyz2hcQEAmDEHmJOs+ArM3sHv8vVeXU9+0UEYdwG7JgbwJ96FRZPZv+GfFVl7Itx8p20JBmZaAo03I1O2wqt4/8asQtqyF+WoG47RA0ieQIE+fdWJzaCvTQWKIeTLi7xy58xrltmQtAOsyBrBmknxzElmJLFsxJ3J60oaItlm2Hny9TpT8UgW2QZ6jNMDCnnPkC39vej2cKCJVGbvJAHoDXckgUxCamLZNP/6rd3CgeAX9a41hxBIJ8RP+dDlYeITC4QhZg6jdSreomu/60w07J7yuvnQHYkyYHgAtWVnikKBrp/Un60jseJYr2mBdtSdWaWPsdavMNhwn0IAY1Z5DQeiL9I8TSOFAt2zctqC4fLmfWNAeyBpPfSN/EO05mJExGwnrAqHZQvUuqmgJJ5CFtr5kAn3pZ72IzEqyrPQ5iB0DakD0pfC8KuOoOYKvdM+kD712wtkEKFZ2kCXMLJMfSp+5odBCWsJeuGCzsObEkKP8TGmRas2R2Qt1+pKqnuZbzpTjPEWJNleyimCAAJI5wNAOlB4dws3T9QAiTz0rvyANdu3brCSpg6KDoPALR04YPxsGJ/Au/mdctCF9UIt2VyljlznVjOm/4R3CpY3Ei0TYQQxjO+ksSJgdBQ38BDuWtKFR1aPwlTlHmIzHypG/be5PzHXXQwG5+O1ewOANx8oI2nUQI8quhwqzZXO4zx3D2E/ejdHaM3c4VbOgJdu7MT4wqSfOl73BcnK55lV/7jIrVcXu27eozrm5pzgaSJA2qky4djM3JPVUPvM0ymxaRT38CxiHbvBup7dqo2LSoCHslzyK3Q0/+0MYrVYPhNu59BjxQf8A9U1e4CVWfm+iD9a55DqR85vohYhVZNZgyT4RXLWHU6F2Hdl/U1u8RwRSpLENA5qKQT4eV9gB3lifYqRVFmQHjM3awduYD6+H96j8iGj5o037UGOUa6itZ/8A5/LILKynlkAI89dKUxuFNs5BlcRs4BjwMSPeu9SwcSoSzbOy5z/US58so/SnLNm4Cpi1biYEQ0H+YDN71DEBFYKbaroCYObfXSQI8qOoRtIb/mI+xoNhSO/MhszdoDozAfafanG4ihGtsEHnKt7xTVjgFnLJzE+R92mpYvhNtCssxBGggH8xU3JDIrrF22DAU9rTXKQO8SK8cUn8o/5EpsrZXZW9VH5GlTfs/wDkf/cP5Cuuw0f/2Q==;" vertex="1" parent="1">
                    <mxGeometry x="320" y="380" width="420" height="606.4" as="geometry"/>
                </mxCell>
            </root>
        </mxGraphModel>
    </diagram>
</mxfile>